<svg width="51" height="50" viewBox="0 0 51 50" fill="none" xmlns="http://www.w3.org/2000/svg">
<path d="M8.70837 31.8555C8.82786 32.1398 9.02883 32.3825 9.28595 32.5528C9.54306 32.7231 9.84482 32.8135 10.1532 32.8125H41.3926C41.701 32.8135 42.0027 32.7231 42.2598 32.5528C42.5169 32.3825 42.7179 32.1398 42.8374 31.8555C42.9499 31.5669 42.9785 31.2523 42.9198 30.9481C42.861 30.6439 42.7174 30.3626 42.5055 30.1367L26.8858 14.5117C26.5872 14.2229 26.1882 14.0615 25.7729 14.0615C25.3576 14.0615 24.9585 14.2229 24.66 14.5117L9.04029 30.1367C8.82839 30.3626 8.68476 30.6439 8.62603 30.9481C8.56729 31.2523 8.59584 31.5669 8.70837 31.8555Z" fill="#A8A8A8"/>
</svg>
