<svg width="19" height="36" viewBox="0 0 19 36" fill="none" xmlns="http://www.w3.org/2000/svg">
<path d="M18.4883 16.8867L2.86329 1.26169C2.63737 1.04972 2.35606 0.906047 2.0519 0.847288C1.74773 0.788529 1.43315 0.817087 1.14454 0.929658C0.860162 1.04919 0.61753 1.25023 0.44722 1.50743C0.27691 1.76463 0.186543 2.06649 0.187508 2.37497V33.625C0.186543 33.9334 0.27691 34.2353 0.44722 34.4925C0.61753 34.7497 0.860162 34.9507 1.14454 35.0703C1.33727 35.1468 1.54264 35.1866 1.75001 35.1875C2.16491 35.1857 2.56336 35.0249 2.86329 34.7383L18.4883 19.1133C18.7817 18.817 18.9463 18.4169 18.9463 18C18.9463 17.583 18.7817 17.1829 18.4883 16.8867Z" fill="white"/>
</svg>
