<svg width="19" height="36" viewBox="0 0 19 36" fill="none" xmlns="http://www.w3.org/2000/svg">
<path d="M0.597513 19.2301L16.2738 34.8036C16.5004 35.0149 16.7822 35.1576 17.0866 35.2154C17.3909 35.2731 17.7054 35.2435 17.9936 35.13C18.2776 35.0095 18.5196 34.8077 18.6891 34.5499C18.8585 34.2922 18.9479 33.99 18.9459 33.6816L18.8431 2.43173C18.8431 2.12325 18.7517 1.82169 18.5806 1.56505C18.4094 1.30841 18.1661 1.10817 17.8814 0.989574C17.6884 0.91367 17.4829 0.874597 17.2755 0.874375C16.8606 0.877494 16.4627 1.03958 16.1637 1.32725L0.590189 17.0036C0.297756 17.3008 0.134474 17.7014 0.135846 18.1183C0.137217 18.5353 0.30313 18.9348 0.597513 19.2301Z" fill="white"/>
</svg>
