<svg width="110" height="119" viewBox="0 0 110 119" fill="none" xmlns="http://www.w3.org/2000/svg">
<path d="M100.625 9.25H86.9375V4.6875C86.9375 3.47745 86.4568 2.31696 85.6012 1.46133C84.7455 0.60569 83.5851 0.125 82.375 0.125C81.1649 0.125 80.0045 0.60569 79.1488 1.46133C78.2932 2.31696 77.8125 3.47745 77.8125 4.6875V9.25H32.1875V4.6875C32.1875 3.47745 31.7068 2.31696 30.8512 1.46133C29.9955 0.60569 28.8351 0.125 27.625 0.125C26.4149 0.125 25.2545 0.60569 24.3988 1.46133C23.5432 2.31696 23.0625 3.47745 23.0625 4.6875V9.25H9.375C6.9549 9.25 4.63392 10.2114 2.92265 11.9227C1.21138 13.6339 0.25 15.9549 0.25 18.375V109.625C0.25 112.045 1.21138 114.366 2.92265 116.077C4.63392 117.789 6.9549 118.75 9.375 118.75H100.625C103.045 118.75 105.366 117.789 107.077 116.077C108.789 114.366 109.75 112.045 109.75 109.625V18.375C109.75 15.9549 108.789 13.6339 107.077 11.9227C105.366 10.2114 103.045 9.25 100.625 9.25ZM23.0625 18.375V22.9375C23.0625 24.1476 23.5432 25.308 24.3988 26.1637C25.2545 27.0193 26.4149 27.5 27.625 27.5C28.8351 27.5 29.9955 27.0193 30.8512 26.1637C31.7068 25.308 32.1875 24.1476 32.1875 22.9375V18.375H77.8125V22.9375C77.8125 24.1476 78.2932 25.308 79.1488 26.1637C80.0045 27.0193 81.1649 27.5 82.375 27.5C83.5851 27.5 84.7455 27.0193 85.6012 26.1637C86.4568 25.308 86.9375 24.1476 86.9375 22.9375V18.375H100.625V36.625H9.375V18.375H23.0625ZM100.625 109.625H9.375V45.75H100.625V109.625ZM45.875 59.4375V95.9375C45.875 97.1476 45.3943 98.308 44.5387 99.1637C43.683 100.019 42.5225 100.5 41.3125 100.5C40.1025 100.5 38.942 100.019 38.0863 99.1637C37.2307 98.308 36.75 97.1476 36.75 95.9375V66.8173L34.2292 68.0834C33.1462 68.6249 31.8925 68.714 30.7438 68.3311C29.5951 67.9482 28.6456 67.1247 28.1041 66.0417C27.5626 64.9587 27.4735 63.705 27.8564 62.5563C28.2393 61.4076 29.0628 60.4581 30.1458 59.9166L39.2708 55.3541C39.9666 55.0059 40.74 54.8414 41.5173 54.8763C42.2946 54.9113 43.0501 55.1444 43.7119 55.5536C44.3737 55.9628 44.9199 56.5345 45.2985 57.2143C45.6771 57.8941 45.8756 58.6594 45.875 59.4375ZM79.6147 76.8035L68.6875 91.375H77.8125C79.0226 91.375 80.183 91.8557 81.0387 92.7113C81.8943 93.567 82.375 94.7274 82.375 95.9375C82.375 97.1476 81.8943 98.308 81.0387 99.1637C80.183 100.019 79.0226 100.5 77.8125 100.5H59.5625C58.7152 100.5 57.8846 100.264 57.1638 99.8186C56.4431 99.3731 55.8606 98.7358 55.4817 97.9779C55.1027 97.2201 54.9423 96.3717 55.0184 95.5278C55.0945 94.6839 55.4041 93.8778 55.9125 93.2L72.3261 71.3171C72.6994 70.8201 72.9673 70.252 73.1132 69.6478C73.2591 69.0435 73.28 68.4158 73.1745 67.8032C73.0691 67.1906 72.8396 66.606 72.5002 66.0852C72.1607 65.5645 71.7184 65.1186 71.2004 64.775C70.6824 64.4313 70.0996 64.1972 69.4879 64.0868C68.8761 63.9765 68.2483 63.9924 67.6429 64.1334C67.0375 64.2745 66.4673 64.5377 65.9673 64.9071C65.4673 65.2764 65.048 65.744 64.7352 66.2812C64.4445 66.8167 64.0495 67.2884 63.5734 67.6687C63.0974 68.049 62.5501 68.3301 61.9636 68.4954C61.3772 68.6607 60.7636 68.7069 60.1591 68.6312C59.5545 68.5555 58.9713 68.3596 58.4437 68.0548C57.9161 67.7501 57.4549 67.3428 57.0873 66.8569C56.7197 66.371 56.4531 65.8164 56.3033 65.2259C56.1535 64.6353 56.1235 64.0207 56.215 63.4184C56.3066 62.816 56.5179 62.2381 56.8364 61.7188C58.3435 59.1106 60.6689 57.0725 63.4521 55.9204C66.2353 54.7682 69.3208 54.5663 72.2304 55.346C75.14 56.1257 77.7111 57.8435 79.5452 60.233C81.3793 62.6225 82.374 65.5503 82.375 68.5625C82.3847 71.5381 81.4147 74.4341 79.6147 76.8035Z" fill="#2ACB97"/>
</svg>
