<svg width="40" height="40" viewBox="0 0 40 40" fill="none" xmlns="http://www.w3.org/2000/svg">
<path d="M38.1 11.9047C37.818 11.6588 37.4693 11.5023 37.0982 11.455C36.7271 11.4077 36.3503 11.4718 36.0156 11.6391L28.1703 15.5453L21.6203 4.66564C21.4519 4.38646 21.2143 4.15552 20.9304 3.99522C20.6465 3.83491 20.326 3.75067 20 3.75067C19.674 3.75067 19.3535 3.83491 19.0696 3.99522C18.7857 4.15552 18.5481 4.38646 18.3797 4.66564L11.8297 15.55L3.98749 11.6438C3.65365 11.478 3.27828 11.4145 2.90848 11.4612C2.53868 11.508 2.19092 11.6629 1.90886 11.9066C1.62679 12.1503 1.42298 12.4718 1.323 12.8309C1.22302 13.19 1.23132 13.5706 1.34687 13.925L7.12812 31.6375C7.18624 31.8155 7.2836 31.9781 7.41298 32.1134C7.54237 32.2486 7.70049 32.3531 7.87567 32.4191C8.05085 32.4851 8.23861 32.5109 8.4251 32.4946C8.61159 32.4783 8.79203 32.4204 8.95312 32.325C8.99218 32.3016 12.9875 30 20 30C27.0125 30 31.0078 32.3016 31.0437 32.3235C31.2049 32.4197 31.3856 32.4785 31.5726 32.4953C31.7596 32.5122 31.9479 32.4867 32.1237 32.4209C32.2994 32.355 32.4581 32.2503 32.5879 32.1147C32.7177 31.9791 32.8153 31.816 32.8734 31.6375L38.6547 13.9297C38.7735 13.5752 38.7843 13.1934 38.6855 12.8328C38.5867 12.4722 38.3829 12.1491 38.1 11.9047ZM30.9375 29.5047C29.0625 28.7094 25.325 27.5 20 27.5C14.675 27.5 10.9375 28.7094 9.06249 29.5047L4.17343 14.5313L11.2156 18.0422C11.6419 18.2524 12.1314 18.2954 12.5878 18.1626C13.0441 18.0299 13.4342 17.7311 13.6812 17.325L20 6.82189L26.3187 17.3219C26.566 17.7273 26.9558 18.0256 27.4117 18.1583C27.8676 18.291 28.3566 18.2485 28.7828 18.0391L35.8266 14.5313L30.9375 29.5047ZM27.4797 24.5047C27.4287 24.7939 27.2775 25.0558 27.0526 25.2447C26.8278 25.4335 26.5436 25.5372 26.25 25.5375C26.1767 25.5374 26.1035 25.5311 26.0312 25.5188C22.0386 24.8333 17.9583 24.8333 13.9656 25.5188C13.6391 25.5764 13.303 25.5019 13.0314 25.3117C12.7597 25.1215 12.5748 24.8312 12.5172 24.5047C12.4596 24.1782 12.5341 23.8421 12.7242 23.5705C12.9144 23.2988 13.2047 23.1139 13.5312 23.0563C17.8113 22.3209 22.1855 22.3209 26.4656 23.0563C26.7915 23.1135 27.0814 23.2976 27.2718 23.5682C27.4622 23.8389 27.5375 24.1739 27.4812 24.5L27.4797 24.5047Z" fill="#EEB300"/>
</svg>
