<svg width="100" height="120" viewBox="0 0 100 147" fill="none" xmlns="http://www.w3.org/2000/svg">
<path d="M66.9614 68.0249H55.9651V26.1634H61.4632C67.296 26.1634 72.8899 28.3686 77.0143 32.2939C81.1387 36.2192 83.4558 41.543 83.4558 47.0942C83.4558 48.482 84.035 49.8129 85.0661 50.7942C86.0972 51.7756 87.4957 52.3269 88.9539 52.3269C90.4121 52.3269 91.8106 51.7756 92.8417 50.7942C93.8728 49.8129 94.452 48.482 94.452 47.0942C94.4429 38.7701 90.9644 30.7894 84.7798 24.9033C78.5952 19.0173 70.2096 15.7067 61.4632 15.6981H55.9651V5.23269C55.9651 3.84489 55.3858 2.51394 54.3547 1.53262C53.3236 0.551299 51.9252 0 50.467 0C49.0088 0 47.6103 0.551299 46.5792 1.53262C45.5481 2.51394 44.9688 3.84489 44.9688 5.23269V15.6981H39.4707C30.7215 15.6981 22.3307 19.0059 16.1441 24.8938C9.95749 30.7817 6.4819 38.7674 6.4819 47.0942C6.4819 55.4209 9.95749 63.4067 16.1441 69.2946C22.3307 75.1825 30.7215 78.4903 39.4707 78.4903H44.9688V120.352H33.9726C28.1398 120.352 22.5459 118.147 18.4215 114.221C14.2971 110.296 11.98 104.972 11.98 99.421C11.98 98.0332 11.4008 96.7023 10.3697 95.7209C9.33856 94.7396 7.94009 94.1883 6.4819 94.1883C5.0237 94.1883 3.62523 94.7396 2.59413 95.7209C1.56303 96.7023 0.983765 98.0332 0.983765 99.421C0.992861 107.745 4.47138 115.726 10.656 121.612C16.8406 127.498 25.2262 130.808 33.9726 130.817H44.9688V141.283C44.9688 142.67 45.5481 144.001 46.5792 144.983C47.6103 145.964 49.0088 146.515 50.467 146.515C51.9252 146.515 53.3236 145.964 54.3547 144.983C55.3858 144.001 55.9651 142.67 55.9651 141.283V130.817H66.9614C75.7105 130.817 84.1014 127.509 90.288 121.621C96.4746 115.734 99.9502 107.748 99.9502 99.421C99.9502 91.0943 96.4746 83.1085 90.288 77.2206C84.1014 71.3327 75.7105 68.0249 66.9614 68.0249ZM39.4707 68.0249C33.6379 68.0249 28.044 65.8197 23.9196 61.8944C19.7952 57.9692 17.4782 52.6453 17.4782 47.0942C17.4782 41.543 19.7952 36.2192 23.9196 32.2939C28.044 28.3686 33.6379 26.1634 39.4707 26.1634H44.9688V68.0249H39.4707ZM66.9614 120.352H55.9651V78.4903H66.9614C72.7941 78.4903 78.388 80.6955 82.5124 84.6208C86.6368 88.546 88.9539 93.8698 88.9539 99.421C88.9539 104.972 86.6368 110.296 82.5124 114.221C78.388 118.147 72.7941 120.352 66.9614 120.352Z" fill="#2ACB97"/>
</svg>
