<svg width="128" height="120" viewBox="0 0 128 120" fill="none" xmlns="http://www.w3.org/2000/svg">
<path d="M73.0313 44.0312C73.0313 45.3848 72.6327 46.708 71.8858 47.8334C71.139 48.9589 70.0774 49.8361 68.8355 50.354C67.5935 50.872 66.2269 51.0076 64.9084 50.7435C63.5899 50.4794 62.3789 49.8276 61.4283 48.8705C60.4777 47.9134 59.8304 46.694 59.5681 45.3664C59.3059 44.0388 59.4405 42.6628 59.9549 41.4123C60.4694 40.1617 61.3405 39.0929 62.4583 38.3409C63.576 37.5889 64.8901 37.1875 66.2344 37.1875C68.0371 37.1875 69.7659 37.9085 71.0405 39.192C72.3152 40.4754 73.0313 42.2162 73.0313 44.0312ZM127.406 60.8441C127.151 76.2098 120.999 90.8798 110.24 101.779C99.4801 112.679 84.9482 118.962 69.6895 119.312H68.4604C54.0145 119.415 40.0416 114.133 29.2311 104.484C28.3298 103.677 27.7837 102.543 27.7131 101.331C27.6781 100.73 27.7609 100.129 27.9567 99.561C28.1526 98.9929 28.4576 98.4692 28.8544 98.0199C29.2513 97.5705 29.7321 97.2042 30.2695 96.942C30.8069 96.6797 31.3904 96.5266 31.9865 96.4914C33.1906 96.4203 34.3733 96.8337 35.2746 97.6406C38.6886 100.717 42.5224 103.284 46.6594 105.266L61.7032 84.4322C48.8004 78.826 34.8159 81.2099 26.9258 82.5559C23.5865 83.1365 20.1522 82.7581 17.0167 81.464C13.8811 80.1698 11.1711 78.0123 9.1973 75.2387L9.02737 74.9935L1.22229 62.4466C0.905774 61.9364 0.692591 61.3682 0.595016 60.7747C0.497441 60.1812 0.5174 59.5741 0.653745 58.9884C0.790089 58.4027 1.04013 57.8499 1.38947 57.3618C1.73881 56.8738 2.18056 56.4601 2.68929 56.1447L59.4375 20.9507V5.25C59.4375 4.03995 59.9149 2.87946 60.7647 2.02383C61.6145 1.16819 62.767 0.6875 63.9688 0.6875H68.5C76.3068 0.686704 84.0358 2.24838 91.2378 5.28176C98.4398 8.31513 104.971 12.7597 110.452 18.3571C115.933 23.9545 120.255 30.593 123.165 37.8868C126.076 45.1807 127.517 52.9843 127.406 60.8441ZM118.344 60.7186C118.438 54.0676 117.219 47.4641 114.756 41.2919C112.294 35.1197 108.638 29.5019 104 24.7652C99.3618 20.0285 93.835 16.2673 87.7407 13.7004C81.6464 11.1334 75.1061 9.81182 68.5 9.8125V23.5C68.4996 24.279 68.301 25.045 67.9232 25.7248C67.5455 26.4047 67.0011 26.9758 66.342 27.3838L11.327 61.4771L16.6285 70.0318C17.6285 71.3874 18.984 72.4354 20.5429 73.0581C22.1018 73.6807 23.8022 73.8532 25.4532 73.5563C34.5157 72.0165 53.0768 68.8569 69.6725 78.2215C75.468 77.9108 80.925 75.3758 84.9211 71.1378C88.9172 66.8999 91.1486 61.2813 91.1563 55.4375C91.1563 54.2274 91.6337 53.067 92.4835 52.2113C93.3332 51.3557 94.4858 50.875 95.6875 50.875C96.8893 50.875 98.0418 51.3557 98.8916 52.2113C99.7414 53.067 100.219 54.2274 100.219 55.4375C100.208 63.4893 97.1805 71.2405 91.7415 77.143C86.3026 83.0456 78.8524 86.6649 70.8789 87.278L55.5237 108.539C60.0882 109.731 64.7937 110.286 69.5082 110.187C82.4164 109.885 94.708 104.566 103.81 95.3459C112.913 86.1254 118.121 73.7174 118.344 60.7186Z" fill="#2ACB97"/>
</svg>
