<svg width="22" height="22" viewBox="0 0 22 22" fill="none" xmlns="http://www.w3.org/2000/svg">
<path fill-rule="evenodd" clip-rule="evenodd" d="M6.66667 0.667969H14.6667C18.348 0.667969 21.3333 3.6533 21.3333 7.33464V15.3346C21.3333 19.016 18.348 22.0013 14.6667 22.0013H6.66667C2.98533 22.0013 0 19.016 0 15.3346V7.33464C0 3.6533 2.98533 0.667969 6.66667 0.667969ZM14.6667 20.0014C17.24 20.0014 19.3333 17.9081 19.3333 15.3348V7.33476C19.3333 4.76143 17.24 2.66809 14.6667 2.66809H6.66666C4.09332 2.66809 1.99999 4.76143 1.99999 7.33476V15.3348C1.99999 17.9081 4.09332 20.0014 6.66666 20.0014H14.6667ZM5.33328 11.3345C5.33328 8.38915 7.72128 6.00115 10.6666 6.00115C13.6119 6.00115 15.9999 8.38915 15.9999 11.3345C15.9999 14.2798 13.6119 16.6678 10.6666 16.6678C7.72128 16.6678 5.33328 14.2798 5.33328 11.3345ZM7.33328 11.3349C7.33328 13.1722 8.82928 14.6682 10.6666 14.6682C12.5039 14.6682 13.9999 13.1722 13.9999 11.3349C13.9999 9.49619 12.5039 8.00153 10.6666 8.00153C8.82928 8.00153 7.33328 9.49619 7.33328 11.3349ZM17.1108 5.60111C17.1108 5.9936 16.7926 6.31178 16.4001 6.31178C16.0077 6.31178 15.6895 5.9936 15.6895 5.60111C15.6895 5.20862 16.0077 4.89045 16.4001 4.89045C16.7926 4.89045 17.1108 5.20862 17.1108 5.60111Z" fill="white"/>
</svg>
