<svg width="19" height="35" viewBox="0 0 19 35" fill="none" xmlns="http://www.w3.org/2000/svg">
<path d="M18.4883 16.437L2.86329 0.770794C2.63737 0.558267 2.35606 0.414215 2.0519 0.355301C1.74773 0.296387 1.43315 0.32502 1.14454 0.437888C0.860162 0.557736 0.61753 0.759302 0.44722 1.01718C0.27691 1.27506 0.186543 1.57772 0.187508 1.88701V33.2193C0.186543 33.5286 0.27691 33.8313 0.44722 34.0891C0.61753 34.347 0.860162 34.5486 1.14454 34.6684C1.33727 34.7452 1.54264 34.785 1.75001 34.7859C2.16491 34.7842 2.56336 34.623 2.86329 34.3355L18.4883 18.6694C18.7817 18.3724 18.9463 17.9712 18.9463 17.5532C18.9463 17.1351 18.7817 16.734 18.4883 16.437Z" fill="#2ACB97"/>
</svg>
