<svg width="146" height="146" viewBox="0 0 146 146" fill="none" xmlns="http://www.w3.org/2000/svg">
<path d="M126.495 100.341C123.33 94.8886 118.625 79.4616 118.625 59.3125C118.625 47.212 113.818 35.6071 105.262 27.0508C96.7054 18.4944 85.1005 13.6875 73 13.6875C60.8995 13.6875 49.2946 18.4944 40.7382 27.0508C32.1819 35.6071 27.375 47.212 27.375 59.3125C27.375 79.4673 22.6642 94.8886 19.499 100.341C18.6907 101.727 18.2622 103.302 18.2566 104.906C18.2511 106.511 18.6688 108.088 19.4676 109.48C20.2664 110.872 21.418 112.028 22.8062 112.833C24.1945 113.637 25.7704 114.061 27.375 114.062H50.6494C51.7021 119.213 54.5015 123.842 58.5741 127.167C62.6468 130.492 67.7427 132.307 73 132.307C78.2573 132.307 83.3532 130.492 87.4258 127.167C91.4985 123.842 94.2979 119.213 95.3505 114.062H118.625C120.229 114.06 121.804 113.635 123.192 112.83C124.579 112.025 125.73 110.869 126.528 109.478C127.326 108.086 127.743 106.509 127.738 104.905C127.732 103.301 127.303 101.726 126.495 100.341ZM73 123.188C70.1702 123.187 67.4103 122.309 65.1 120.675C62.7897 119.04 61.0428 116.73 60.0995 114.062H85.9005C84.9572 116.73 83.2102 119.04 80.9 120.675C78.5897 122.309 75.8298 123.187 73 123.188ZM27.375 104.938C31.7664 97.3866 36.5 79.8894 36.5 59.3125C36.5 49.6321 40.3455 40.3482 47.1906 33.5031C54.0357 26.658 63.3196 22.8125 73 22.8125C82.6804 22.8125 91.9643 26.658 98.8094 33.5031C105.654 40.3482 109.5 49.6321 109.5 59.3125C109.5 79.8723 114.222 97.3695 118.625 104.938H27.375Z" fill="#2ACB97"/>
</svg>
