<svg width="35" height="26" viewBox="0 0 35 26" fill="none" xmlns="http://www.w3.org/2000/svg">
<path d="M12.4852 25.382C12.139 25.382 11.8016 25.3214 11.4728 25.2002C11.1441 25.079 10.859 24.8802 10.6174 24.6037L1.38207 15.3684C0.828394 14.8496 0.56027 14.2013 0.577702 13.4235C0.595135 12.6448 0.863259 11.9961 1.38207 11.4773C1.90089 10.9585 2.5409 10.699 3.30211 10.699C4.06249 10.699 4.71952 10.9585 5.2732 11.4773L12.4852 18.6892L30.1764 1.04907C30.6952 0.530251 31.3352 0.262127 32.0964 0.244695C32.8568 0.227262 33.4964 0.495387 34.0152 1.04907C34.5689 1.60275 34.8457 2.25978 34.8457 3.02015C34.8457 3.78136 34.5689 4.4388 34.0152 4.99249L14.4039 24.6037C14.1275 24.8802 13.8249 25.079 13.4962 25.2002C13.1675 25.3214 12.8305 25.382 12.4852 25.382Z" fill="#2ACB97"/>
</svg>
