<svg width="146" height="146" viewBox="0 0 146 146" fill="none" xmlns="http://www.w3.org/2000/svg">
<path d="M82.1249 89.9267C89.2772 85.472 94.784 78.8091 97.8123 70.946C100.841 63.0829 101.226 54.4474 98.909 46.346C96.5923 38.2447 91.7002 31.1182 84.9727 26.0448C78.2452 20.9713 70.0483 18.2271 61.6222 18.2271C53.1961 18.2271 44.9993 20.9713 38.2717 26.0448C31.5442 31.1182 26.6521 38.2447 24.3355 46.346C22.0189 54.4474 22.4038 63.0829 25.4321 70.946C28.4604 78.8091 33.9672 85.472 41.1195 89.9267C29.3425 93.782 18.7461 100.985 10.2257 111.125C9.82644 111.582 9.52224 112.113 9.33084 112.689C9.13944 113.264 9.06469 113.872 9.11095 114.477C9.15721 115.081 9.32356 115.671 9.60027 116.21C9.87698 116.75 10.2585 117.229 10.7225 117.62C11.1865 118.01 11.7237 118.304 12.3027 118.485C12.8817 118.665 13.4909 118.728 14.0946 118.67C14.6983 118.613 15.2844 118.435 15.8187 118.148C16.353 117.861 16.8247 117.471 17.2063 116.999C28.6582 103.335 44.433 95.8124 61.5937 95.8124C78.7544 95.8124 94.5292 103.335 106.004 116.999C106.783 117.927 107.898 118.506 109.105 118.611C110.311 118.716 111.51 118.337 112.437 117.558C113.364 116.779 113.944 115.664 114.049 114.458C114.154 113.251 113.775 112.052 112.996 111.125C104.47 100.985 93.8734 93.782 82.1249 89.9267ZM31.9374 57.0311C31.9374 51.1657 33.6768 45.4319 36.9354 40.555C40.1941 35.678 44.8258 31.8769 50.2447 29.6323C55.6637 27.3877 61.6266 26.8004 67.3793 27.9447C73.1321 29.089 78.4163 31.9135 82.5638 36.061C86.7113 40.2085 89.5358 45.4927 90.6801 51.2455C91.8244 56.9982 91.2371 62.9611 88.9925 68.3801C86.7479 73.799 82.9468 78.4307 78.0698 81.6894C73.1929 84.9481 67.4591 86.6874 61.5937 86.6874C53.7311 86.6783 46.1932 83.5509 40.6336 77.9912C35.0739 72.4316 31.9465 64.8937 31.9374 57.0311ZM139.299 81.5945L136.641 80.0603C136.953 78.4096 136.953 76.7151 136.641 75.0644L139.299 73.5302C140.347 72.9252 141.112 71.9286 141.425 70.7596C141.739 69.5906 141.575 68.3449 140.97 67.2967C140.365 66.2485 139.368 65.4836 138.199 65.1702C137.03 64.8568 135.784 65.0207 134.736 65.6257L132.073 67.1656C130.798 66.072 129.333 65.2232 127.75 64.6619V61.5936C127.75 60.3836 127.269 59.2231 126.414 58.3674C125.558 57.5118 124.397 57.0311 123.187 57.0311C121.977 57.0311 120.817 57.5118 119.961 58.3674C119.106 59.2231 118.625 60.3836 118.625 61.5936V64.6619C117.042 65.2232 115.577 66.072 114.302 67.1656L111.639 65.6257C111.12 65.3261 110.547 65.1317 109.952 65.0536C109.358 64.9754 108.755 65.0151 108.176 65.1702C107.597 65.3254 107.054 65.5931 106.579 65.9579C106.104 66.3228 105.705 66.7777 105.405 67.2967C105.106 67.8158 104.911 68.3887 104.833 68.9828C104.755 69.577 104.794 70.1807 104.95 70.7596C105.105 71.3384 105.372 71.881 105.737 72.3564C106.102 72.8318 106.557 73.2307 107.076 73.5302L109.734 75.0644C109.422 76.7151 109.422 78.4096 109.734 80.0603L107.076 81.5945C106.028 82.1995 105.263 83.1961 104.95 84.3652C104.636 85.5342 104.8 86.7798 105.405 87.828C106.01 88.8762 107.007 89.6411 108.176 89.9545C109.345 90.2679 110.59 90.104 111.639 89.499L114.302 87.9592C115.577 89.0527 117.042 89.9015 118.625 90.4628V93.5311C118.625 94.7412 119.106 95.9016 119.961 96.7573C120.817 97.6129 121.977 98.0936 123.187 98.0936C124.397 98.0936 125.558 97.6129 126.414 96.7573C127.269 95.9016 127.75 94.7412 127.75 93.5311V90.4628C129.333 89.9015 130.798 89.0527 132.073 87.9592L134.736 89.499C135.429 89.9011 136.216 90.1117 137.018 90.1092C138.022 90.1096 138.999 89.7784 139.796 89.1669C140.593 88.5554 141.166 87.6979 141.426 86.7275C141.686 85.757 141.619 84.7279 141.234 83.7997C140.849 82.8716 140.169 82.0964 139.299 81.5945ZM118.625 77.5624C118.625 76.66 118.893 75.7779 119.394 75.0276C119.895 74.2773 120.608 73.6925 121.441 73.3472C122.275 73.0018 123.193 72.9115 124.078 73.0875C124.963 73.2636 125.776 73.6981 126.414 74.3362C127.052 74.9743 127.486 75.7872 127.662 76.6723C127.838 77.5573 127.748 78.4747 127.403 79.3083C127.057 80.142 126.473 80.8546 125.722 81.3559C124.972 81.8573 124.09 82.1249 123.187 82.1249C121.977 82.1249 120.817 81.6442 119.961 80.7885C119.106 79.9329 118.625 78.7724 118.625 77.5624Z" fill="#2ACB97"/>
</svg>
