<svg width="138" height="101" viewBox="0 0 138 101" fill="none" xmlns="http://www.w3.org/2000/svg">
<path d="M135.537 58.775C135.058 59.1345 134.513 59.396 133.933 59.5447C133.353 59.6934 132.749 59.7263 132.156 59.6416C131.563 59.5569 130.993 59.3561 130.477 59.0509C129.962 58.7456 129.512 58.3418 129.152 57.8625C126.404 54.1661 122.826 51.1669 118.706 49.1066C114.587 47.0462 110.042 45.9821 105.437 46C104.54 45.9999 103.663 45.7353 102.916 45.2392C102.169 44.7432 101.584 44.0378 101.235 43.2111C100.999 42.6498 100.877 42.0467 100.877 41.4375C100.877 40.8282 100.999 40.2251 101.235 39.6638C101.584 38.8372 102.169 38.1317 102.916 37.6357C103.663 37.1397 104.54 36.875 105.437 36.875C107.996 36.8747 110.504 36.1566 112.675 34.8021C114.846 33.4476 116.595 31.5111 117.721 29.2125C118.847 26.9139 119.307 24.3453 119.047 21.7985C118.788 19.2518 117.819 16.8289 116.252 14.8051C114.685 12.7814 112.582 11.2378 110.182 10.3498C107.782 9.46182 105.181 9.26496 102.675 9.7816C100.168 10.2982 97.857 11.5077 96.0034 13.2725C94.1497 15.0374 92.828 17.2869 92.1882 19.7656C92.0385 20.346 91.776 20.8913 91.4156 21.3702C91.0552 21.8491 90.6041 22.2524 90.088 22.5569C89.5718 22.8614 89.0008 23.0612 88.4074 23.1449C87.8141 23.2287 87.2101 23.1947 86.6299 23.0449C86.0497 22.8951 85.5047 22.6324 85.0259 22.2719C84.5472 21.9114 84.1441 21.4601 83.8397 20.9438C83.5353 20.4274 83.3356 19.8562 83.2519 19.2626C83.1682 18.669 83.2022 18.0648 83.3519 17.4843C84.2399 14.0471 85.9174 10.8647 88.2512 8.19025C90.5849 5.51579 93.5104 3.42313 96.7948 2.07877C100.079 0.734416 103.632 0.175476 107.17 0.446423C110.709 0.71737 114.135 1.81073 117.177 3.6395C120.218 5.46827 122.791 7.98197 124.691 10.9806C126.591 13.9792 127.764 17.38 128.119 20.9124C128.474 24.4447 127.999 28.0111 126.734 31.3278C125.468 34.6445 123.447 37.62 120.829 40.0174C127.031 42.7035 132.422 46.9662 136.467 52.3818C136.826 52.8623 137.087 53.409 137.235 53.9907C137.383 54.5723 137.414 55.1774 137.328 55.7712C137.242 56.3651 137.039 56.9361 136.732 57.4515C136.425 57.967 136.019 58.4167 135.537 58.775ZM104.821 93.9062C105.151 94.4255 105.373 95.0062 105.473 95.6134C105.573 96.2206 105.549 96.8417 105.402 97.4394C105.256 98.037 104.99 98.5989 104.621 99.0912C104.252 99.5835 103.787 99.996 103.255 100.304C102.722 100.612 102.133 100.809 101.522 100.883C100.912 100.957 100.293 100.907 99.7018 100.736C99.111 100.564 98.5611 100.275 98.085 99.8855C97.6088 99.4959 97.2164 99.014 96.9313 98.4687C94.0584 93.6021 89.9667 89.5689 85.06 86.7671C80.1534 83.9652 74.6013 82.4916 68.9516 82.4916C63.3019 82.4916 57.7498 83.9652 52.8431 86.7671C47.9365 89.5689 43.8448 93.6021 40.9718 98.4687C40.6867 99.014 40.2943 99.4959 39.8182 99.8855C39.3421 100.275 38.7921 100.564 38.2014 100.736C37.6107 100.907 36.9914 100.957 36.3808 100.883C35.7702 100.809 35.1809 100.612 34.6483 100.304C34.1158 99.996 33.6511 99.5835 33.282 99.0912C32.913 98.5989 32.6473 98.037 32.501 97.4394C32.3546 96.8417 32.3307 96.2206 32.4305 95.6134C32.5303 95.0062 32.7519 94.4255 33.0819 93.9062C37.5034 86.3061 44.2452 80.3252 52.3165 76.8425C47.7748 73.3638 44.437 68.5487 42.7722 63.0742C41.1074 57.5996 41.1993 51.7407 43.0351 46.3211C44.8708 40.9015 48.3581 36.1936 53.0067 32.8593C57.6553 29.5249 63.2316 27.7317 68.9516 27.7317C74.6716 27.7317 80.2478 29.5249 84.8965 32.8593C89.5451 36.1936 93.0323 40.9015 94.8681 46.3211C96.7039 51.7407 96.7958 57.5996 95.131 63.0742C93.4662 68.5487 90.1283 73.3638 85.5866 76.8425C93.6579 80.3252 100.4 86.3061 104.821 93.9062ZM68.9516 73.375C72.5597 73.375 76.0867 72.3046 79.0867 70.2993C82.0867 68.294 84.4249 65.4437 85.8056 62.1089C87.1864 58.7742 87.5477 55.1047 86.8438 51.5646C86.1399 48.0244 84.4024 44.7726 81.8511 42.2203C79.2998 39.668 76.0493 37.9298 72.5106 37.2256C68.9718 36.5215 65.3038 36.8829 61.9704 38.2642C58.637 39.6455 55.7879 41.9846 53.7833 44.9858C51.7788 47.987 50.7089 51.5155 50.7089 55.125C50.7089 59.9652 52.6309 64.6071 56.052 68.0297C59.4732 71.4522 64.1133 73.375 68.9516 73.375ZM37.0269 41.4375C37.0269 40.2274 36.5464 39.0669 35.6911 38.2113C34.8358 37.3557 33.6758 36.875 32.4662 36.875C29.9072 36.8747 27.3996 36.1566 25.2282 34.8021C23.0568 33.4476 21.3086 31.5111 20.1822 29.2125C19.0558 26.9139 18.5963 24.3453 18.856 21.7985C19.1157 19.2518 20.084 16.8289 21.6512 14.8051C23.2183 12.7814 25.3213 11.2378 27.7214 10.3498C30.1214 9.46182 32.7223 9.26496 35.2286 9.7816C37.7349 10.2982 40.0462 11.5077 41.8998 13.2725C43.7534 15.0374 45.0752 17.2869 45.7149 19.7656C46.0173 20.9378 46.7728 21.9419 47.8152 22.5569C48.8576 23.1719 50.1015 23.3474 51.2733 23.0449C52.445 22.7424 53.4487 21.9866 54.0634 20.9438C54.6782 19.901 54.8536 18.6566 54.5513 17.4843C53.6633 14.0471 51.9857 10.8647 49.652 8.19025C47.3183 5.51579 44.3928 3.42313 41.1084 2.07877C37.824 0.734416 34.2712 0.175476 30.7329 0.446423C27.1945 0.71737 23.7682 1.81073 20.7266 3.6395C17.6849 5.46827 15.1119 7.98197 13.2123 10.9806C11.3126 13.9792 10.1387 17.38 9.78406 20.9124C9.42938 24.4447 9.90368 28.0111 11.1692 31.3278C12.4348 34.6445 14.4566 37.62 17.0739 40.0174C10.8787 42.7061 5.49387 46.9685 1.4536 52.3818C0.727103 53.3498 0.414761 54.5669 0.585285 55.7653C0.755809 56.9638 1.39523 58.0453 2.36288 58.7721C3.33054 59.4989 4.54716 59.8114 5.7451 59.6408C6.94304 59.4702 8.02418 58.8305 8.75068 57.8625C11.4995 54.1661 15.0776 51.1669 19.1967 49.1066C23.3158 47.0462 27.8609 45.9821 32.4662 46C33.6758 46 34.8358 45.5193 35.6911 44.6636C36.5464 43.808 37.0269 42.6475 37.0269 41.4375Z" fill="#2ACB97"/>
</svg>
