<svg width="28" height="28" viewBox="0 0 28 28" fill="none" xmlns="http://www.w3.org/2000/svg">
<path d="M18.2356 13.5636L12.9856 10.0636C12.8538 9.97562 12.7006 9.92512 12.5423 9.91745C12.3841 9.90979 12.2267 9.94524 12.087 10.02C11.9473 10.0948 11.8306 10.2061 11.7492 10.3421C11.6678 10.478 11.6249 10.6335 11.625 10.792V17.792C11.6249 17.9504 11.6678 18.1059 11.7492 18.2419C11.8306 18.3779 11.9473 18.4892 12.087 18.564C12.2267 18.6388 12.3841 18.6742 12.5423 18.6665C12.7006 18.6589 12.8538 18.6084 12.9856 18.5204L18.2356 15.0204C18.3556 14.9406 18.4541 14.8323 18.5222 14.7052C18.5902 14.5781 18.6259 14.4362 18.6259 14.292C18.6259 14.1478 18.5902 14.0059 18.5222 13.8788C18.4541 13.7517 18.3556 13.6434 18.2356 13.5636ZM13.375 16.1568V12.4326L16.1728 14.292L13.375 16.1568ZM25.8798 7.89575C25.7768 7.49253 25.5793 7.1196 25.3038 6.80772C25.0282 6.49584 24.6824 6.25394 24.295 6.102C20.5456 4.65387 14.5781 4.667 14.25 4.667C13.9219 4.667 7.95437 4.65387 4.205 6.102C3.81755 6.25394 3.47179 6.49584 3.19623 6.80772C2.92067 7.1196 2.72322 7.49253 2.62016 7.89575C2.33688 8.98731 2 10.9823 2 14.292C2 17.6017 2.33688 19.5967 2.62016 20.6882C2.72306 21.0917 2.92045 21.4648 3.19601 21.7769C3.47158 22.089 3.81743 22.331 4.205 22.4831C7.79688 23.8689 13.4187 23.917 14.1778 23.917H14.3222C15.0813 23.917 20.7064 23.8689 24.295 22.4831C24.6826 22.331 25.0284 22.089 25.304 21.7769C25.5796 21.4648 25.7769 21.0917 25.8798 20.6882C26.1631 19.5945 26.5 17.6017 26.5 14.292C26.5 10.9823 26.1631 8.98731 25.8798 7.89575ZM24.1856 20.2551C24.1523 20.3893 24.0876 20.5137 23.9969 20.6181C23.9063 20.7224 23.7921 20.8038 23.6639 20.8556C20.2022 22.1922 14.3145 22.1681 14.2577 22.1681H14.25C14.1909 22.1681 8.30766 22.19 4.84375 20.8556C4.71553 20.8038 4.6014 20.7224 4.51071 20.6181C4.42002 20.5137 4.35536 20.3893 4.32203 20.2551C4.05625 19.2565 3.75 17.4168 3.75 14.292C3.75 11.1672 4.05625 9.32747 4.31437 8.33434C4.34709 8.19935 4.41147 8.07409 4.50219 7.96891C4.59291 7.86374 4.70737 7.78167 4.83609 7.7295C8.17422 6.43997 13.7677 6.417 14.2259 6.417H14.2555C14.3145 6.417 20.2033 6.39731 23.6617 7.7295C23.7899 7.78124 23.9041 7.86264 23.9948 7.96702C24.0854 8.07139 24.1501 8.19577 24.1834 8.32996C24.4438 9.32747 24.75 11.1672 24.75 14.292C24.75 17.4168 24.4438 19.2565 24.1856 20.2497V20.2551Z" fill="white"/>
</svg>
